ISO-10303-21;
HEADER;
/* Generated by software containing ST-Developer
 * from STEP Tools, Inc. (www.steptools.com) 
 */

FILE_DESCRIPTION(
/* description */ (''),
/* implementation_level */ '2;1');

FILE_NAME(
/* name */ 'backplate.step',
/* time_stamp */ '2026-09-19T17:18:39+05:30',
/* author */ (''),
/* organization */ (''),
/* preprocessor_version */ 'ST-DEVELOPER v20.2',
/* originating_system */ 'Autodesk Translation Framework v15.15.0.0',
/* authorisation */ '');

FILE_SCHEMA (('AUTOMOTIVE_DESIGN { 1 0 10303 214 3 1 1 }'));
ENDSEC;

DATA;
#10=MECHANICAL_DESIGN_GEOMETRIC_PRESENTATION_REPRESENTATION('',(#13),#413);
#11=SHAPE_REPRESENTATION_RELATIONSHIP('SRR','None',#420,#12);
#12=ADVANCED_BREP_SHAPE_REPRESENTATION('',(#14),#412);
#13=STYLED_ITEM('',(#429),#14);
#14=MANIFOLD_SOLID_BREP('Body1',#199);
#15=FACE_BOUND('',#40,.T.);
#16=FACE_BOUND('',#46,.T.);
#17=FACE_BOUND('',#48,.T.);
#18=PLANE('',#215);
#19=PLANE('',#218);
#20=PLANE('',#219);
#21=PLANE('',#223);
#22=PLANE('',#228);
#23=PLANE('',#231);
#24=FACE_OUTER_BOUND('',#35,.T.);
#25=FACE_OUTER_BOUND('',#36,.T.);
#26=FACE_OUTER_BOUND('',#37,.T.);
#27=FACE_OUTER_BOUND('',#38,.T.);
#28=FACE_OUTER_BOUND('',#39,.T.);
#29=FACE_OUTER_BOUND('',#41,.T.);
#30=FACE_OUTER_BOUND('',#42,.T.);
#31=FACE_OUTER_BOUND('',#43,.T.);
#32=FACE_OUTER_BOUND('',#44,.T.);
#33=FACE_OUTER_BOUND('',#45,.T.);
#34=FACE_OUTER_BOUND('',#47,.T.);
#35=EDGE_LOOP('',(#131,#132,#133,#134,#135,#136));
#36=EDGE_LOOP('',(#137));
#37=EDGE_LOOP('',(#138,#139,#140,#141,#142,#143));
#38=EDGE_LOOP('',(#144));
#39=EDGE_LOOP('',(#145));
#40=EDGE_LOOP('',(#146,#147,#148,#149));
#41=EDGE_LOOP('',(#150,#151,#152,#153));
#42=EDGE_LOOP('',(#154,#155,#156,#157));
#43=EDGE_LOOP('',(#158,#159,#160,#161));
#44=EDGE_LOOP('',(#162,#163,#164,#165));
#45=EDGE_LOOP('',(#166,#167,#168,#169,#170,#171,#172,#173,#174));
#46=EDGE_LOOP('',(#175,#176,#177));
#47=EDGE_LOOP('',(#178));
#48=EDGE_LOOP('',(#179,#180,#181,#182));
#49=CIRCLE('',#214,1.);
#50=CIRCLE('',#217,1.);
#51=CIRCLE('',#220,10.);
#52=CIRCLE('',#221,1.3);
#53=CIRCLE('',#222,1.3);
#54=CIRCLE('',#225,1.3);
#55=CIRCLE('',#227,1.3);
#56=CIRCLE('',#230,10.);
#57=LINE('',#318,#69);
#58=LINE('',#364,#70);
#59=LINE('',#384,#71);
#60=LINE('',#387,#72);
#61=LINE('',#390,#73);
#62=LINE('',#392,#74);
#63=LINE('',#393,#75);
#64=LINE('',#397,#76);
#65=LINE('',#400,#77);
#66=LINE('',#403,#78);
#67=LINE('',#405,#79);
#68=LINE('',#407,#80);
#69=VECTOR('',#236,1.);
#70=VECTOR('',#243,1.);
#71=VECTOR('',#254,10.);
#72=VECTOR('',#257,10.);
#73=VECTOR('',#260,10.);
#74=VECTOR('',#261,10.);
#75=VECTOR('',#262,10.);
#76=VECTOR('',#267,10.);
#77=VECTOR('',#270,10.);
#78=VECTOR('',#275,10.);
#79=VECTOR('',#278,10.);
#80=VECTOR('',#279,10.);
#81=B_SPLINE_CURVE_WITH_KNOTS('',3,(#288,#289,#290,#291,#292,#293,#294,
#295,#296,#297,#298,#299,#300,#301,#302,#303,#304,#305),.UNSPECIFIED.,.F.,
 .F.,(4,2,2,2,2,2,2,2,4),(0.150782872197509,0.188478526093234,0.226174179988959,
0.263869962191989,0.301565744395019,0.339261526598048,0.376957308801078,
0.414652962696803,0.452348616592528),.UNSPECIFIED.);
#82=B_SPLINE_CURVE_WITH_KNOTS('',3,(#307,#308,#309,#310,#311,#312,#313,
#314,#315,#316),.UNSPECIFIED.,.F.,.F.,(4,2,2,2,4),(0.603131488790037,0.640827270993067,
0.678523053196097,0.716218707091822,0.753914360987547),.UNSPECIFIED.);
#83=B_SPLINE_CURVE_WITH_KNOTS('',3,(#320,#321,#322,#323,#324,#325,#326,
#327,#328,#329),.UNSPECIFIED.,.F.,.F.,(4,2,2,2,4),(0.452348616592528,0.490044270488253,
0.527739924383978,0.565435706587007,0.603131488790037),.UNSPECIFIED.);
#84=B_SPLINE_CURVE_WITH_KNOTS('',3,(#334,#335,#336,#337,#338,#339,#340,
#341,#342,#343,#344,#345,#346,#347,#348,#349,#350,#351),.UNSPECIFIED.,.F.,
 .F.,(4,2,2,2,2,2,2,2,4),(0.150782872197509,0.188478526093234,0.226174179988959,
0.263869962191989,0.301565744395019,0.339261526598048,0.376957308801078,
0.414652962696803,0.452348616592528),.UNSPECIFIED.);
#85=B_SPLINE_CURVE_WITH_KNOTS('',3,(#353,#354,#355,#356,#357,#358,#359,
#360,#361,#362),.UNSPECIFIED.,.F.,.F.,(4,2,2,2,4),(0.603131488790037,0.640827270993067,
0.678523053196097,0.716218707091822,0.753914360987546),.UNSPECIFIED.);
#86=B_SPLINE_CURVE_WITH_KNOTS('',3,(#366,#367,#368,#369,#370,#371,#372,
#373,#374,#375),.UNSPECIFIED.,.F.,.F.,(4,2,2,2,4),(0.452348616592528,0.490044270488253,
0.527739924383978,0.565435706587007,0.603131488790037),.UNSPECIFIED.);
#87=VERTEX_POINT('',#286);
#88=VERTEX_POINT('',#287);
#89=VERTEX_POINT('',#306);
#90=VERTEX_POINT('',#317);
#91=VERTEX_POINT('',#332);
#92=VERTEX_POINT('',#333);
#93=VERTEX_POINT('',#352);
#94=VERTEX_POINT('',#363);
#95=VERTEX_POINT('',#378);
#96=VERTEX_POINT('',#380);
#97=VERTEX_POINT('',#381);
#98=VERTEX_POINT('',#383);
#99=VERTEX_POINT('',#385);
#100=VERTEX_POINT('',#389);
#101=VERTEX_POINT('',#391);
#102=VERTEX_POINT('',#395);
#103=VERTEX_POINT('',#399);
#104=VERTEX_POINT('',#406);
#105=EDGE_CURVE('',#87,#88,#81,.T.);
#106=EDGE_CURVE('',#89,#87,#82,.T.);
#107=EDGE_CURVE('',#89,#90,#57,.T.);
#108=EDGE_CURVE('',#90,#90,#49,.T.);
#109=EDGE_CURVE('',#88,#89,#83,.T.);
#110=EDGE_CURVE('',#91,#92,#84,.T.);
#111=EDGE_CURVE('',#93,#91,#85,.T.);
#112=EDGE_CURVE('',#93,#94,#58,.T.);
#113=EDGE_CURVE('',#94,#94,#50,.T.);
#114=EDGE_CURVE('',#92,#93,#86,.T.);
#115=EDGE_CURVE('',#95,#95,#51,.T.);
#116=EDGE_CURVE('',#96,#97,#52,.T.);
#117=EDGE_CURVE('',#97,#98,#59,.T.);
#118=EDGE_CURVE('',#98,#99,#53,.T.);
#119=EDGE_CURVE('',#99,#96,#60,.T.);
#120=EDGE_CURVE('',#96,#100,#61,.T.);
#121=EDGE_CURVE('',#101,#99,#62,.T.);
#122=EDGE_CURVE('',#100,#101,#63,.T.);
#123=EDGE_CURVE('',#100,#102,#54,.T.);
#124=EDGE_CURVE('',#102,#97,#64,.T.);
#125=EDGE_CURVE('',#98,#103,#65,.T.);
#126=EDGE_CURVE('',#103,#101,#55,.T.);
#127=EDGE_CURVE('',#103,#102,#66,.T.);
#128=EDGE_CURVE('',#95,#88,#67,.T.);
#129=EDGE_CURVE('',#87,#104,#68,.T.);
#130=EDGE_CURVE('',#104,#104,#56,.T.);
#131=ORIENTED_EDGE('',*,*,#105,.F.);
#132=ORIENTED_EDGE('',*,*,#106,.F.);
#133=ORIENTED_EDGE('',*,*,#107,.T.);
#134=ORIENTED_EDGE('',*,*,#108,.F.);
#135=ORIENTED_EDGE('',*,*,#107,.F.);
#136=ORIENTED_EDGE('',*,*,#109,.F.);
#137=ORIENTED_EDGE('',*,*,#108,.T.);
#138=ORIENTED_EDGE('',*,*,#110,.F.);
#139=ORIENTED_EDGE('',*,*,#111,.F.);
#140=ORIENTED_EDGE('',*,*,#112,.T.);
#141=ORIENTED_EDGE('',*,*,#113,.T.);
#142=ORIENTED_EDGE('',*,*,#112,.F.);
#143=ORIENTED_EDGE('',*,*,#114,.F.);
#144=ORIENTED_EDGE('',*,*,#113,.F.);
#145=ORIENTED_EDGE('',*,*,#115,.T.);
#146=ORIENTED_EDGE('',*,*,#116,.T.);
#147=ORIENTED_EDGE('',*,*,#117,.T.);
#148=ORIENTED_EDGE('',*,*,#118,.T.);
#149=ORIENTED_EDGE('',*,*,#119,.T.);
#150=ORIENTED_EDGE('',*,*,#120,.F.);
#151=ORIENTED_EDGE('',*,*,#119,.F.);
#152=ORIENTED_EDGE('',*,*,#121,.F.);
#153=ORIENTED_EDGE('',*,*,#122,.F.);
#154=ORIENTED_EDGE('',*,*,#120,.T.);
#155=ORIENTED_EDGE('',*,*,#123,.T.);
#156=ORIENTED_EDGE('',*,*,#124,.T.);
#157=ORIENTED_EDGE('',*,*,#116,.F.);
#158=ORIENTED_EDGE('',*,*,#125,.T.);
#159=ORIENTED_EDGE('',*,*,#126,.T.);
#160=ORIENTED_EDGE('',*,*,#121,.T.);
#161=ORIENTED_EDGE('',*,*,#118,.F.);
#162=ORIENTED_EDGE('',*,*,#124,.F.);
#163=ORIENTED_EDGE('',*,*,#127,.F.);
#164=ORIENTED_EDGE('',*,*,#125,.F.);
#165=ORIENTED_EDGE('',*,*,#117,.F.);
#166=ORIENTED_EDGE('',*,*,#115,.F.);
#167=ORIENTED_EDGE('',*,*,#128,.T.);
#168=ORIENTED_EDGE('',*,*,#109,.T.);
#169=ORIENTED_EDGE('',*,*,#106,.T.);
#170=ORIENTED_EDGE('',*,*,#129,.T.);
#171=ORIENTED_EDGE('',*,*,#130,.T.);
#172=ORIENTED_EDGE('',*,*,#129,.F.);
#173=ORIENTED_EDGE('',*,*,#105,.T.);
#174=ORIENTED_EDGE('',*,*,#128,.F.);
#175=ORIENTED_EDGE('',*,*,#110,.T.);
#176=ORIENTED_EDGE('',*,*,#114,.T.);
#177=ORIENTED_EDGE('',*,*,#111,.T.);
#178=ORIENTED_EDGE('',*,*,#130,.F.);
#179=ORIENTED_EDGE('',*,*,#122,.T.);
#180=ORIENTED_EDGE('',*,*,#126,.F.);
#181=ORIENTED_EDGE('',*,*,#127,.T.);
#182=ORIENTED_EDGE('',*,*,#123,.F.);
#183=CYLINDRICAL_SURFACE('',#213,1.);
#184=CYLINDRICAL_SURFACE('',#216,1.);
#185=CYLINDRICAL_SURFACE('',#224,1.3);
#186=CYLINDRICAL_SURFACE('',#226,1.3);
#187=CYLINDRICAL_SURFACE('',#229,10.);
#188=ADVANCED_FACE('',(#24),#183,.F.);
#189=ADVANCED_FACE('',(#25),#18,.T.);
#190=ADVANCED_FACE('',(#26),#184,.F.);
#191=ADVANCED_FACE('',(#27),#19,.F.);
#192=ADVANCED_FACE('',(#28,#15),#20,.T.);
#193=ADVANCED_FACE('',(#29),#21,.F.);
#194=ADVANCED_FACE('',(#30),#185,.F.);
#195=ADVANCED_FACE('',(#31),#186,.F.);
#196=ADVANCED_FACE('',(#32),#22,.F.);
#197=ADVANCED_FACE('',(#33,#16),#187,.T.);
#198=ADVANCED_FACE('',(#34,#17),#23,.F.);
#199=CLOSED_SHELL('',(#188,#189,#190,#191,#192,#193,#194,#195,#196,#197,
#198));
#200=DERIVED_UNIT_ELEMENT(#202,1.);
#201=DERIVED_UNIT_ELEMENT(#415,-3.);
#202=(
MASS_UNIT()
NAMED_UNIT(*)
SI_UNIT(.KILO.,.GRAM.)
);
#203=DERIVED_UNIT((#200,#201));
#204=MEASURE_REPRESENTATION_ITEM('density measure',
POSITIVE_RATIO_MEASURE(7850.),#203);
#205=PROPERTY_DEFINITION_REPRESENTATION(#210,#207);
#206=PROPERTY_DEFINITION_REPRESENTATION(#211,#208);
#207=REPRESENTATION('material name',(#209),#412);
#208=REPRESENTATION('density',(#204),#412);
#209=DESCRIPTIVE_REPRESENTATION_ITEM('Steel','Steel');
#210=PROPERTY_DEFINITION('material property','material name',#422);
#211=PROPERTY_DEFINITION('material property','density of part',#422);
#212=AXIS2_PLACEMENT_3D('',#284,#232,#233);
#213=AXIS2_PLACEMENT_3D('',#285,#234,#235);
#214=AXIS2_PLACEMENT_3D('',#319,#237,#238);
#215=AXIS2_PLACEMENT_3D('',#330,#239,#240);
#216=AXIS2_PLACEMENT_3D('',#331,#241,#242);
#217=AXIS2_PLACEMENT_3D('',#365,#244,#245);
#218=AXIS2_PLACEMENT_3D('',#376,#246,#247);
#219=AXIS2_PLACEMENT_3D('',#377,#248,#249);
#220=AXIS2_PLACEMENT_3D('',#379,#250,#251);
#221=AXIS2_PLACEMENT_3D('',#382,#252,#253);
#222=AXIS2_PLACEMENT_3D('',#386,#255,#256);
#223=AXIS2_PLACEMENT_3D('',#388,#258,#259);
#224=AXIS2_PLACEMENT_3D('',#394,#263,#264);
#225=AXIS2_PLACEMENT_3D('',#396,#265,#266);
#226=AXIS2_PLACEMENT_3D('',#398,#268,#269);
#227=AXIS2_PLACEMENT_3D('',#401,#271,#272);
#228=AXIS2_PLACEMENT_3D('',#402,#273,#274);
#229=AXIS2_PLACEMENT_3D('',#404,#276,#277);
#230=AXIS2_PLACEMENT_3D('',#408,#280,#281);
#231=AXIS2_PLACEMENT_3D('',#409,#282,#283);
#232=DIRECTION('axis',(0.,0.,1.));
#233=DIRECTION('refdir',(1.,0.,0.));
#234=DIRECTION('center_axis',(-1.,0.,0.));
#235=DIRECTION('ref_axis',(0.,1.,0.));
#236=DIRECTION('',(1.,0.,0.));
#237=DIRECTION('center_axis',(-1.,0.,0.));
#238=DIRECTION('ref_axis',(0.,1.,0.));
#239=DIRECTION('center_axis',(-1.,0.,0.));
#240=DIRECTION('ref_axis',(0.,1.,0.));
#241=DIRECTION('center_axis',(-1.,0.,0.));
#242=DIRECTION('ref_axis',(0.,1.,0.));
#243=DIRECTION('',(-1.,0.,0.));
#244=DIRECTION('center_axis',(-1.,0.,0.));
#245=DIRECTION('ref_axis',(0.,1.,0.));
#246=DIRECTION('center_axis',(-1.,0.,0.));
#247=DIRECTION('ref_axis',(0.,1.,0.));
#248=DIRECTION('center_axis',(0.,0.,1.));
#249=DIRECTION('ref_axis',(1.,0.,0.));
#250=DIRECTION('center_axis',(0.,0.,1.));
#251=DIRECTION('ref_axis',(1.,0.,0.));
#252=DIRECTION('center_axis',(0.,0.,-1.));
#253=DIRECTION('ref_axis',(-0.707106781186547,0.707106781186547,0.));
#254=DIRECTION('',(1.,0.,0.));
#255=DIRECTION('center_axis',(0.,0.,-1.));
#256=DIRECTION('ref_axis',(0.707106781186547,-0.707106781186547,0.));
#257=DIRECTION('',(-1.,0.,0.));
#258=DIRECTION('center_axis',(0.,-1.,0.));
#259=DIRECTION('ref_axis',(-1.,0.,0.));
#260=DIRECTION('',(0.,0.,-1.));
#261=DIRECTION('',(0.,0.,1.));
#262=DIRECTION('',(1.,0.,0.));
#263=DIRECTION('center_axis',(0.,0.,-1.));
#264=DIRECTION('ref_axis',(-0.707106781186547,0.707106781186547,0.));
#265=DIRECTION('center_axis',(0.,0.,-1.));
#266=DIRECTION('ref_axis',(-0.707106781186547,-0.707106781186547,0.));
#267=DIRECTION('',(0.,0.,1.));
#268=DIRECTION('center_axis',(0.,0.,-1.));
#269=DIRECTION('ref_axis',(0.707106781186547,0.707106781186547,0.));
#270=DIRECTION('',(0.,0.,-1.));
#271=DIRECTION('center_axis',(0.,0.,-1.));
#272=DIRECTION('ref_axis',(0.707106781186547,0.707106781186547,0.));
#273=DIRECTION('center_axis',(0.,1.,0.));
#274=DIRECTION('ref_axis',(1.,0.,0.));
#275=DIRECTION('',(-1.,0.,0.));
#276=DIRECTION('center_axis',(0.,0.,1.));
#277=DIRECTION('ref_axis',(1.,0.,0.));
#278=DIRECTION('',(0.,0.,-1.));
#279=DIRECTION('',(0.,0.,-1.));
#280=DIRECTION('center_axis',(0.,0.,1.));
#281=DIRECTION('ref_axis',(1.,0.,0.));
#282=DIRECTION('center_axis',(0.,0.,1.));
#283=DIRECTION('ref_axis',(1.,0.,0.));
#284=CARTESIAN_POINT('',(0.,0.,0.));
#285=CARTESIAN_POINT('Origin',(-8.,0.,2.06672905385494));
#286=CARTESIAN_POINT('',(-10.,0.,1.06672905385494));
#287=CARTESIAN_POINT('',(-10.,0.,3.06672905385494));
#288=CARTESIAN_POINT('Ctrl Pts',(-10.,-3.46944695195361E-17,1.06672905385494));
#289=CARTESIAN_POINT('Ctrl Pts',(-10.,0.125652179652416,1.06672905385494));
#290=CARTESIAN_POINT('Ctrl Pts',(-9.99738921136592,0.259622584309893,1.09185785509916));
#291=CARTESIAN_POINT('Ctrl Pts',(-9.9879518361721,0.505977320073438,1.1939377329908));
#292=CARTESIAN_POINT('Ctrl Pts',(-9.98125914862946,0.618368682969034,1.27088417445088));
#293=CARTESIAN_POINT('Ctrl Pts',(-9.96867817321921,0.795845181448066,1.44836067292991));
#294=CARTESIAN_POINT('Ctrl Pts',(-9.96197082307397,0.872791387223183,1.5607519033984));
#295=CARTESIAN_POINT('Ctrl Pts',(-9.95249987974195,0.97487108917411,1.80710619561671));
#296=CARTESIAN_POINT('Ctrl Pts',(-9.9498743710662,1.,1.94107644651151));
#297=CARTESIAN_POINT('Ctrl Pts',(-9.9498743710662,1.,2.19238166119837));
#298=CARTESIAN_POINT('Ctrl Pts',(-9.95249987974195,0.97487108917411,2.32635191209317));
#299=CARTESIAN_POINT('Ctrl Pts',(-9.96197082307397,0.872791387223183,2.57270620431148));
#300=CARTESIAN_POINT('Ctrl Pts',(-9.96867817321921,0.795845181448065,2.68509743477997));
#301=CARTESIAN_POINT('Ctrl Pts',(-9.98125914862946,0.618368682969034,2.862573933259));
#302=CARTESIAN_POINT('Ctrl Pts',(-9.9879518361721,0.505977320073437,2.93952037471908));
#303=CARTESIAN_POINT('Ctrl Pts',(-9.99738921136592,0.259622584309892,3.04160025261072));
#304=CARTESIAN_POINT('Ctrl Pts',(-10.,0.125652179652416,3.06672905385494));
#305=CARTESIAN_POINT('Ctrl Pts',(-10.,6.93889390390723E-17,3.06672905385494));
#306=CARTESIAN_POINT('',(-9.9498743710662,-1.,2.06672905385494));
#307=CARTESIAN_POINT('Ctrl Pts',(-9.9498743710662,-1.,2.06672905385494));
#308=CARTESIAN_POINT('Ctrl Pts',(-9.9498743710662,-1.,1.94107644651151));
#309=CARTESIAN_POINT('Ctrl Pts',(-9.95249987974195,-0.97487108917411,1.80710619561671));
#310=CARTESIAN_POINT('Ctrl Pts',(-9.96197082307397,-0.872791387223182,1.5607519033984));
#311=CARTESIAN_POINT('Ctrl Pts',(-9.96867817321921,-0.795845181448065,1.44836067292991));
#312=CARTESIAN_POINT('Ctrl Pts',(-9.98125914862946,-0.618368682969033,1.27088417445088));
#313=CARTESIAN_POINT('Ctrl Pts',(-9.9879518361721,-0.505977320073438,1.1939377329908));
#314=CARTESIAN_POINT('Ctrl Pts',(-9.99738921136592,-0.259622584309893,1.09185785509916));
#315=CARTESIAN_POINT('Ctrl Pts',(-10.,-0.125652179652416,1.06672905385494));
#316=CARTESIAN_POINT('Ctrl Pts',(-10.,6.93889390390723E-17,1.06672905385494));
#317=CARTESIAN_POINT('',(-6.,-1.,2.06672905385494));
#318=CARTESIAN_POINT('',(-8.,-1.,2.06672905385494));
#319=CARTESIAN_POINT('Origin',(-6.,0.,2.06672905385494));
#320=CARTESIAN_POINT('Ctrl Pts',(-10.,1.38777878078145E-16,3.06672905385494));
#321=CARTESIAN_POINT('Ctrl Pts',(-10.,-0.125652179652416,3.06672905385494));
#322=CARTESIAN_POINT('Ctrl Pts',(-9.99738921136592,-0.259622584309893,3.04160025261072));
#323=CARTESIAN_POINT('Ctrl Pts',(-9.9879518361721,-0.505977320073438,2.93952037471908));
#324=CARTESIAN_POINT('Ctrl Pts',(-9.98125914862946,-0.618368682969033,2.862573933259));
#325=CARTESIAN_POINT('Ctrl Pts',(-9.96867817321921,-0.795845181448065,2.68509743477997));
#326=CARTESIAN_POINT('Ctrl Pts',(-9.96197082307397,-0.872791387223182,2.57270620431148));
#327=CARTESIAN_POINT('Ctrl Pts',(-9.95249987974195,-0.97487108917411,2.32635191209317));
#328=CARTESIAN_POINT('Ctrl Pts',(-9.9498743710662,-1.,2.19238166119837));
#329=CARTESIAN_POINT('Ctrl Pts',(-9.9498743710662,-1.,2.06672905385494));
#330=CARTESIAN_POINT('Origin',(-6.,0.,2.06672905385494));
#331=CARTESIAN_POINT('Origin',(8.,0.,2.06672905385494));
#332=CARTESIAN_POINT('',(10.,0.,3.06672905385494));
#333=CARTESIAN_POINT('',(10.,0.,1.06672905385494));
#334=CARTESIAN_POINT('Ctrl Pts',(10.,-1.73472347597681E-16,3.06672905385494));
#335=CARTESIAN_POINT('Ctrl Pts',(10.,0.125652179652416,3.06672905385494));
#336=CARTESIAN_POINT('Ctrl Pts',(9.99738921136592,0.259622584309893,3.04160025261072));
#337=CARTESIAN_POINT('Ctrl Pts',(9.9879518361721,0.505977320073438,2.93952037471908));
#338=CARTESIAN_POINT('Ctrl Pts',(9.98125914862946,0.618368682969033,2.862573933259));
#339=CARTESIAN_POINT('Ctrl Pts',(9.96867817321921,0.795845181448065,2.68509743477997));
#340=CARTESIAN_POINT('Ctrl Pts',(9.96197082307397,0.872791387223182,2.57270620431148));
#341=CARTESIAN_POINT('Ctrl Pts',(9.95249987974195,0.97487108917411,2.32635191209317));
#342=CARTESIAN_POINT('Ctrl Pts',(9.9498743710662,1.,2.19238166119837));
#343=CARTESIAN_POINT('Ctrl Pts',(9.9498743710662,1.,1.94107644651151));
#344=CARTESIAN_POINT('Ctrl Pts',(9.95249987974195,0.97487108917411,1.80710619561671));
#345=CARTESIAN_POINT('Ctrl Pts',(9.96197082307397,0.872791387223183,1.5607519033984));
#346=CARTESIAN_POINT('Ctrl Pts',(9.96867817321921,0.795845181448065,1.44836067292991));
#347=CARTESIAN_POINT('Ctrl Pts',(9.98125914862946,0.618368682969034,1.27088417445088));
#348=CARTESIAN_POINT('Ctrl Pts',(9.9879518361721,0.505977320073438,1.1939377329908));
#349=CARTESIAN_POINT('Ctrl Pts',(9.99738921136592,0.259622584309893,1.09185785509916));
#350=CARTESIAN_POINT('Ctrl Pts',(10.,0.125652179652417,1.06672905385494));
#351=CARTESIAN_POINT('Ctrl Pts',(10.,3.12250225675825E-16,1.06672905385494));
#352=CARTESIAN_POINT('',(9.9498743710662,-1.,2.06672905385494));
#353=CARTESIAN_POINT('Ctrl Pts',(9.9498743710662,-1.,2.06672905385494));
#354=CARTESIAN_POINT('Ctrl Pts',(9.9498743710662,-1.,2.19238166119837));
#355=CARTESIAN_POINT('Ctrl Pts',(9.95249987974195,-0.97487108917411,2.32635191209317));
#356=CARTESIAN_POINT('Ctrl Pts',(9.96197082307397,-0.872791387223183,2.57270620431148));
#357=CARTESIAN_POINT('Ctrl Pts',(9.96867817321921,-0.795845181448065,2.68509743477997));
#358=CARTESIAN_POINT('Ctrl Pts',(9.98125914862946,-0.618368682969034,2.862573933259));
#359=CARTESIAN_POINT('Ctrl Pts',(9.9879518361721,-0.505977320073438,2.93952037471908));
#360=CARTESIAN_POINT('Ctrl Pts',(9.99738921136592,-0.259622584309893,3.04160025261072));
#361=CARTESIAN_POINT('Ctrl Pts',(10.,-0.125652179652416,3.06672905385494));
#362=CARTESIAN_POINT('Ctrl Pts',(10.,-2.08166817117217E-16,3.06672905385494));
#363=CARTESIAN_POINT('',(6.,-1.,2.06672905385494));
#364=CARTESIAN_POINT('',(8.,-1.,2.06672905385494));
#365=CARTESIAN_POINT('Origin',(6.,0.,2.06672905385494));
#366=CARTESIAN_POINT('Ctrl Pts',(10.,2.42861286636753E-16,1.06672905385494));
#367=CARTESIAN_POINT('Ctrl Pts',(10.,-0.125652179652416,1.06672905385494));
#368=CARTESIAN_POINT('Ctrl Pts',(9.99738921136592,-0.259622584309892,1.09185785509916));
#369=CARTESIAN_POINT('Ctrl Pts',(9.9879518361721,-0.505977320073437,1.1939377329908));
#370=CARTESIAN_POINT('Ctrl Pts',(9.98125914862946,-0.618368682969033,1.27088417445088));
#371=CARTESIAN_POINT('Ctrl Pts',(9.96867817321921,-0.795845181448065,1.44836067292991));
#372=CARTESIAN_POINT('Ctrl Pts',(9.96197082307397,-0.872791387223182,1.5607519033984));
#373=CARTESIAN_POINT('Ctrl Pts',(9.95249987974195,-0.97487108917411,1.80710619561671));
#374=CARTESIAN_POINT('Ctrl Pts',(9.9498743710662,-1.,1.94107644651151));
#375=CARTESIAN_POINT('Ctrl Pts',(9.9498743710662,-1.,2.06672905385494));
#376=CARTESIAN_POINT('Origin',(6.,0.,2.06672905385494));
#377=CARTESIAN_POINT('Origin',(0.,0.,4.));
#378=CARTESIAN_POINT('',(-10.,-1.11022302462516E-15,4.));
#379=CARTESIAN_POINT('Origin',(0.,0.,4.));
#380=CARTESIAN_POINT('',(-2.9,-1.3,4.));
#381=CARTESIAN_POINT('',(-2.9,1.3,4.));
#382=CARTESIAN_POINT('Origin',(-2.9,-2.77555756156289E-16,4.));
#383=CARTESIAN_POINT('',(2.9,1.3,4.));
#384=CARTESIAN_POINT('',(-2.1,1.3,4.));
#385=CARTESIAN_POINT('',(2.9,-1.3,4.));
#386=CARTESIAN_POINT('Origin',(2.9,2.77555756156289E-16,4.));
#387=CARTESIAN_POINT('',(2.1,-1.3,4.));
#388=CARTESIAN_POINT('Origin',(4.2,-1.3,3.));
#389=CARTESIAN_POINT('',(-2.9,-1.3,0.));
#390=CARTESIAN_POINT('',(-2.9,-1.3,3.));
#391=CARTESIAN_POINT('',(2.9,-1.3,0.));
#392=CARTESIAN_POINT('',(2.9,-1.3,3.));
#393=CARTESIAN_POINT('',(2.1,-1.3,0.));
#394=CARTESIAN_POINT('Origin',(-2.9,-2.77555756156289E-16,3.));
#395=CARTESIAN_POINT('',(-2.9,1.3,0.));
#396=CARTESIAN_POINT('Origin',(-2.9,2.77555756156289E-16,0.));
#397=CARTESIAN_POINT('',(-2.9,1.3,3.));
#398=CARTESIAN_POINT('Origin',(2.9,-2.77555756156289E-16,3.));
#399=CARTESIAN_POINT('',(2.9,1.3,0.));
#400=CARTESIAN_POINT('',(2.9,1.3,3.));
#401=CARTESIAN_POINT('Origin',(2.9,-2.77555756156289E-16,0.));
#402=CARTESIAN_POINT('Origin',(-4.2,1.3,3.));
#403=CARTESIAN_POINT('',(-2.1,1.3,0.));
#404=CARTESIAN_POINT('Origin',(0.,0.,0.));
#405=CARTESIAN_POINT('',(-10.,-1.22464679914735E-15,0.));
#406=CARTESIAN_POINT('',(-10.,-1.22464679914735E-15,0.));
#407=CARTESIAN_POINT('',(-10.,-1.22464679914735E-15,0.));
#408=CARTESIAN_POINT('Origin',(0.,0.,0.));
#409=CARTESIAN_POINT('Origin',(0.,0.,0.));
#410=UNCERTAINTY_MEASURE_WITH_UNIT(LENGTH_MEASURE(0.01),#414,
'DISTANCE_ACCURACY_VALUE',
'Maximum model space distance between geometric entities at asserted c
onnectivities');
#411=UNCERTAINTY_MEASURE_WITH_UNIT(LENGTH_MEASURE(0.01),#414,
'DISTANCE_ACCURACY_VALUE',
'Maximum model space distance between geometric entities at asserted c
onnectivities');
#412=(
GEOMETRIC_REPRESENTATION_CONTEXT(3)
GLOBAL_UNCERTAINTY_ASSIGNED_CONTEXT((#410))
GLOBAL_UNIT_ASSIGNED_CONTEXT((#414,#416,#417))
REPRESENTATION_CONTEXT('','3D')
);
#413=(
GEOMETRIC_REPRESENTATION_CONTEXT(3)
GLOBAL_UNCERTAINTY_ASSIGNED_CONTEXT((#411))
GLOBAL_UNIT_ASSIGNED_CONTEXT((#414,#416,#417))
REPRESENTATION_CONTEXT('','3D')
);
#414=(
LENGTH_UNIT()
NAMED_UNIT(*)
SI_UNIT(.MILLI.,.METRE.)
);
#415=(
LENGTH_UNIT()
NAMED_UNIT(*)
SI_UNIT($,.METRE.)
);
#416=(
NAMED_UNIT(*)
PLANE_ANGLE_UNIT()
SI_UNIT($,.RADIAN.)
);
#417=(
NAMED_UNIT(*)
SI_UNIT($,.STERADIAN.)
SOLID_ANGLE_UNIT()
);
#418=SHAPE_DEFINITION_REPRESENTATION(#419,#420);
#419=PRODUCT_DEFINITION_SHAPE('',$,#422);
#420=SHAPE_REPRESENTATION('',(#212),#412);
#421=PRODUCT_DEFINITION_CONTEXT('part definition',#426,'design');
#422=PRODUCT_DEFINITION('2026-09-10-22-58-11-681','backplate',#423,#421);
#423=PRODUCT_DEFINITION_FORMATION('',$,#428);
#424=PRODUCT_RELATED_PRODUCT_CATEGORY('backplate','backplate',(#428));
#425=APPLICATION_PROTOCOL_DEFINITION('international standard',
'automotive_design',2009,#426);
#426=APPLICATION_CONTEXT(
'Core Data for Automotive Mechanical Design Process');
#427=PRODUCT_CONTEXT('part definition',#426,'mechanical');
#428=PRODUCT('2026-09-10-22-58-11-681','backplate',$,(#427));
#429=PRESENTATION_STYLE_ASSIGNMENT((#430));
#430=SURFACE_STYLE_USAGE(.BOTH.,#431);
#431=SURFACE_SIDE_STYLE('',(#432));
#432=SURFACE_STYLE_FILL_AREA(#433);
#433=FILL_AREA_STYLE('Steel - Satin',(#434));
#434=FILL_AREA_STYLE_COLOUR('Steel - Satin',#435);
#435=COLOUR_RGB('Steel - Satin',0.627450980392157,0.627450980392157,0.627450980392157);
ENDSEC;
END-ISO-10303-21;
