ISO-10303-21;
HEADER;
/* Generated by software containing ST-Developer
 * from STEP Tools, Inc. (www.steptools.com) 
 */

FILE_DESCRIPTION(
/* description */ (''),
/* implementation_level */ '2;1');

FILE_NAME(
/* name */ 'frontplate.step',
/* time_stamp */ '2026-09-11T00:37:09+05:30',
/* author */ (''),
/* organization */ (''),
/* preprocessor_version */ 'ST-DEVELOPER v20.2',
/* originating_system */ 'Autodesk Translation Framework v15.15.0.0',
/* authorisation */ '');

FILE_SCHEMA (('AUTOMOTIVE_DESIGN { 1 0 10303 214 3 1 1 }'));
ENDSEC;

DATA;
#10=MECHANICAL_DESIGN_GEOMETRIC_PRESENTATION_REPRESENTATION('',(#13),#203);
#11=SHAPE_REPRESENTATION_RELATIONSHIP('SRR','None',#210,#12);
#12=ADVANCED_BREP_SHAPE_REPRESENTATION('',(#14),#202);
#13=STYLED_ITEM('',(#219),#14);
#14=MANIFOLD_SOLID_BREP('Body1',#111);
#15=FACE_BOUND('',#34,.T.);
#16=FACE_BOUND('',#35,.T.);
#17=FACE_BOUND('',#36,.T.);
#18=FACE_BOUND('',#38,.T.);
#19=FACE_BOUND('',#39,.T.);
#20=FACE_BOUND('',#40,.T.);
#21=PLANE('',#137);
#22=PLANE('',#138);
#23=FACE_OUTER_BOUND('',#29,.T.);
#24=FACE_OUTER_BOUND('',#30,.T.);
#25=FACE_OUTER_BOUND('',#31,.T.);
#26=FACE_OUTER_BOUND('',#32,.T.);
#27=FACE_OUTER_BOUND('',#33,.T.);
#28=FACE_OUTER_BOUND('',#37,.T.);
#29=EDGE_LOOP('',(#77,#78,#79,#80));
#30=EDGE_LOOP('',(#81,#82,#83,#84));
#31=EDGE_LOOP('',(#85,#86,#87,#88));
#32=EDGE_LOOP('',(#89,#90,#91,#92));
#33=EDGE_LOOP('',(#93));
#34=EDGE_LOOP('',(#94));
#35=EDGE_LOOP('',(#95));
#36=EDGE_LOOP('',(#96));
#37=EDGE_LOOP('',(#97));
#38=EDGE_LOOP('',(#98));
#39=EDGE_LOOP('',(#99));
#40=EDGE_LOOP('',(#100));
#41=LINE('',#178,#45);
#42=LINE('',#184,#46);
#43=LINE('',#190,#47);
#44=LINE('',#196,#48);
#45=VECTOR('',#145,0.8);
#46=VECTOR('',#152,0.8);
#47=VECTOR('',#159,1.5);
#48=VECTOR('',#166,10.);
#49=CIRCLE('',#126,0.8);
#50=CIRCLE('',#127,0.8);
#51=CIRCLE('',#129,0.8);
#52=CIRCLE('',#130,0.8);
#53=CIRCLE('',#132,1.5);
#54=CIRCLE('',#133,1.5);
#55=CIRCLE('',#135,10.);
#56=CIRCLE('',#136,10.);
#57=VERTEX_POINT('',#175);
#58=VERTEX_POINT('',#177);
#59=VERTEX_POINT('',#181);
#60=VERTEX_POINT('',#183);
#61=VERTEX_POINT('',#187);
#62=VERTEX_POINT('',#189);
#63=VERTEX_POINT('',#193);
#64=VERTEX_POINT('',#195);
#65=EDGE_CURVE('',#57,#57,#49,.T.);
#66=EDGE_CURVE('',#57,#58,#41,.T.);
#67=EDGE_CURVE('',#58,#58,#50,.T.);
#68=EDGE_CURVE('',#59,#59,#51,.T.);
#69=EDGE_CURVE('',#59,#60,#42,.T.);
#70=EDGE_CURVE('',#60,#60,#52,.T.);
#71=EDGE_CURVE('',#61,#61,#53,.T.);
#72=EDGE_CURVE('',#61,#62,#43,.T.);
#73=EDGE_CURVE('',#62,#62,#54,.T.);
#74=EDGE_CURVE('',#63,#63,#55,.T.);
#75=EDGE_CURVE('',#63,#64,#44,.T.);
#76=EDGE_CURVE('',#64,#64,#56,.T.);
#77=ORIENTED_EDGE('',*,*,#65,.F.);
#78=ORIENTED_EDGE('',*,*,#66,.T.);
#79=ORIENTED_EDGE('',*,*,#67,.F.);
#80=ORIENTED_EDGE('',*,*,#66,.F.);
#81=ORIENTED_EDGE('',*,*,#68,.F.);
#82=ORIENTED_EDGE('',*,*,#69,.T.);
#83=ORIENTED_EDGE('',*,*,#70,.F.);
#84=ORIENTED_EDGE('',*,*,#69,.F.);
#85=ORIENTED_EDGE('',*,*,#71,.F.);
#86=ORIENTED_EDGE('',*,*,#72,.T.);
#87=ORIENTED_EDGE('',*,*,#73,.F.);
#88=ORIENTED_EDGE('',*,*,#72,.F.);
#89=ORIENTED_EDGE('',*,*,#74,.F.);
#90=ORIENTED_EDGE('',*,*,#75,.T.);
#91=ORIENTED_EDGE('',*,*,#76,.T.);
#92=ORIENTED_EDGE('',*,*,#75,.F.);
#93=ORIENTED_EDGE('',*,*,#74,.T.);
#94=ORIENTED_EDGE('',*,*,#65,.T.);
#95=ORIENTED_EDGE('',*,*,#68,.T.);
#96=ORIENTED_EDGE('',*,*,#71,.T.);
#97=ORIENTED_EDGE('',*,*,#76,.F.);
#98=ORIENTED_EDGE('',*,*,#67,.T.);
#99=ORIENTED_EDGE('',*,*,#70,.T.);
#100=ORIENTED_EDGE('',*,*,#73,.T.);
#101=CYLINDRICAL_SURFACE('',#125,0.8);
#102=CYLINDRICAL_SURFACE('',#128,0.8);
#103=CYLINDRICAL_SURFACE('',#131,1.5);
#104=CYLINDRICAL_SURFACE('',#134,10.);
#105=ADVANCED_FACE('',(#23),#101,.F.);
#106=ADVANCED_FACE('',(#24),#102,.F.);
#107=ADVANCED_FACE('',(#25),#103,.F.);
#108=ADVANCED_FACE('',(#26),#104,.T.);
#109=ADVANCED_FACE('',(#27,#15,#16,#17),#21,.T.);
#110=ADVANCED_FACE('',(#28,#18,#19,#20),#22,.F.);
#111=CLOSED_SHELL('',(#105,#106,#107,#108,#109,#110));
#112=DERIVED_UNIT_ELEMENT(#114,1.);
#113=DERIVED_UNIT_ELEMENT(#205,-3.);
#114=(
MASS_UNIT()
NAMED_UNIT(*)
SI_UNIT(.KILO.,.GRAM.)
);
#115=DERIVED_UNIT((#112,#113));
#116=MEASURE_REPRESENTATION_ITEM('density measure',
POSITIVE_RATIO_MEASURE(7850.),#115);
#117=PROPERTY_DEFINITION_REPRESENTATION(#122,#119);
#118=PROPERTY_DEFINITION_REPRESENTATION(#123,#120);
#119=REPRESENTATION('material name',(#121),#202);
#120=REPRESENTATION('density',(#116),#202);
#121=DESCRIPTIVE_REPRESENTATION_ITEM('Steel','Steel');
#122=PROPERTY_DEFINITION('material property','material name',#212);
#123=PROPERTY_DEFINITION('material property','density of part',#212);
#124=AXIS2_PLACEMENT_3D('',#173,#139,#140);
#125=AXIS2_PLACEMENT_3D('',#174,#141,#142);
#126=AXIS2_PLACEMENT_3D('',#176,#143,#144);
#127=AXIS2_PLACEMENT_3D('',#179,#146,#147);
#128=AXIS2_PLACEMENT_3D('',#180,#148,#149);
#129=AXIS2_PLACEMENT_3D('',#182,#150,#151);
#130=AXIS2_PLACEMENT_3D('',#185,#153,#154);
#131=AXIS2_PLACEMENT_3D('',#186,#155,#156);
#132=AXIS2_PLACEMENT_3D('',#188,#157,#158);
#133=AXIS2_PLACEMENT_3D('',#191,#160,#161);
#134=AXIS2_PLACEMENT_3D('',#192,#162,#163);
#135=AXIS2_PLACEMENT_3D('',#194,#164,#165);
#136=AXIS2_PLACEMENT_3D('',#197,#167,#168);
#137=AXIS2_PLACEMENT_3D('',#198,#169,#170);
#138=AXIS2_PLACEMENT_3D('',#199,#171,#172);
#139=DIRECTION('axis',(0.,0.,1.));
#140=DIRECTION('refdir',(1.,0.,0.));
#141=DIRECTION('center_axis',(0.,0.,-1.));
#142=DIRECTION('ref_axis',(-1.,0.,0.));
#143=DIRECTION('center_axis',(0.,0.,-1.));
#144=DIRECTION('ref_axis',(-1.,0.,0.));
#145=DIRECTION('',(0.,0.,-1.));
#146=DIRECTION('center_axis',(0.,0.,1.));
#147=DIRECTION('ref_axis',(-1.,0.,0.));
#148=DIRECTION('center_axis',(0.,0.,-1.));
#149=DIRECTION('ref_axis',(-1.,0.,0.));
#150=DIRECTION('center_axis',(0.,0.,-1.));
#151=DIRECTION('ref_axis',(-1.,0.,0.));
#152=DIRECTION('',(0.,0.,-1.));
#153=DIRECTION('center_axis',(0.,0.,1.));
#154=DIRECTION('ref_axis',(-1.,0.,0.));
#155=DIRECTION('center_axis',(0.,0.,-1.));
#156=DIRECTION('ref_axis',(-1.,0.,0.));
#157=DIRECTION('center_axis',(0.,0.,-1.));
#158=DIRECTION('ref_axis',(-1.,0.,0.));
#159=DIRECTION('',(0.,0.,-1.));
#160=DIRECTION('center_axis',(0.,0.,1.));
#161=DIRECTION('ref_axis',(-1.,0.,0.));
#162=DIRECTION('center_axis',(0.,0.,1.));
#163=DIRECTION('ref_axis',(1.,0.,0.));
#164=DIRECTION('center_axis',(0.,0.,1.));
#165=DIRECTION('ref_axis',(1.,0.,0.));
#166=DIRECTION('',(0.,0.,-1.));
#167=DIRECTION('center_axis',(0.,0.,1.));
#168=DIRECTION('ref_axis',(1.,0.,0.));
#169=DIRECTION('center_axis',(0.,0.,1.));
#170=DIRECTION('ref_axis',(1.,0.,0.));
#171=DIRECTION('center_axis',(0.,0.,1.));
#172=DIRECTION('ref_axis',(1.,0.,0.));
#173=CARTESIAN_POINT('',(0.,0.,0.));
#174=CARTESIAN_POINT('Origin',(4.60929288958201,-0.0139330375123037,3.));
#175=CARTESIAN_POINT('',(5.40929288958201,-0.0139330375123036,3.));
#176=CARTESIAN_POINT('Origin',(4.60929288958201,-0.0139330375123037,3.));
#177=CARTESIAN_POINT('',(5.40929288958201,-0.0139330375123036,0.));
#178=CARTESIAN_POINT('',(5.40929288958201,-0.0139330375123038,3.));
#179=CARTESIAN_POINT('Origin',(4.60929288958201,-0.0139330375123037,0.));
#180=CARTESIAN_POINT('Origin',(-4.6090764948226,0.,3.));
#181=CARTESIAN_POINT('',(-3.8090764948226,9.79717439317882E-17,3.));
#182=CARTESIAN_POINT('Origin',(-4.6090764948226,0.,3.));
#183=CARTESIAN_POINT('',(-3.8090764948226,9.79717439317882E-17,0.));
#184=CARTESIAN_POINT('',(-3.8090764948226,-9.79717439317882E-17,3.));
#185=CARTESIAN_POINT('Origin',(-4.6090764948226,0.,0.));
#186=CARTESIAN_POINT('Origin',(0.,0.,3.));
#187=CARTESIAN_POINT('',(1.5,1.83697019872103E-16,3.));
#188=CARTESIAN_POINT('Origin',(0.,0.,3.));
#189=CARTESIAN_POINT('',(1.5,1.83697019872103E-16,0.));
#190=CARTESIAN_POINT('',(1.5,-1.83697019872103E-16,3.));
#191=CARTESIAN_POINT('Origin',(0.,0.,0.));
#192=CARTESIAN_POINT('Origin',(0.,0.,0.));
#193=CARTESIAN_POINT('',(-10.,-1.22464679914735E-15,3.));
#194=CARTESIAN_POINT('Origin',(0.,0.,3.));
#195=CARTESIAN_POINT('',(-10.,-1.22464679914735E-15,0.));
#196=CARTESIAN_POINT('',(-10.,-1.22464679914735E-15,0.));
#197=CARTESIAN_POINT('Origin',(0.,0.,0.));
#198=CARTESIAN_POINT('Origin',(0.,0.,3.));
#199=CARTESIAN_POINT('Origin',(0.,0.,0.));
#200=UNCERTAINTY_MEASURE_WITH_UNIT(LENGTH_MEASURE(0.01),#204,
'DISTANCE_ACCURACY_VALUE',
'Maximum model space distance between geometric entities at asserted c
onnectivities');
#201=UNCERTAINTY_MEASURE_WITH_UNIT(LENGTH_MEASURE(0.01),#204,
'DISTANCE_ACCURACY_VALUE',
'Maximum model space distance between geometric entities at asserted c
onnectivities');
#202=(
GEOMETRIC_REPRESENTATION_CONTEXT(3)
GLOBAL_UNCERTAINTY_ASSIGNED_CONTEXT((#200))
GLOBAL_UNIT_ASSIGNED_CONTEXT((#204,#206,#207))
REPRESENTATION_CONTEXT('','3D')
);
#203=(
GEOMETRIC_REPRESENTATION_CONTEXT(3)
GLOBAL_UNCERTAINTY_ASSIGNED_CONTEXT((#201))
GLOBAL_UNIT_ASSIGNED_CONTEXT((#204,#206,#207))
REPRESENTATION_CONTEXT('','3D')
);
#204=(
LENGTH_UNIT()
NAMED_UNIT(*)
SI_UNIT(.MILLI.,.METRE.)
);
#205=(
LENGTH_UNIT()
NAMED_UNIT(*)
SI_UNIT($,.METRE.)
);
#206=(
NAMED_UNIT(*)
PLANE_ANGLE_UNIT()
SI_UNIT($,.RADIAN.)
);
#207=(
NAMED_UNIT(*)
SI_UNIT($,.STERADIAN.)
SOLID_ANGLE_UNIT()
);
#208=SHAPE_DEFINITION_REPRESENTATION(#209,#210);
#209=PRODUCT_DEFINITION_SHAPE('',$,#212);
#210=SHAPE_REPRESENTATION('',(#124),#202);
#211=PRODUCT_DEFINITION_CONTEXT('part definition',#216,'design');
#212=PRODUCT_DEFINITION('2026-09-10-22-39-12-020','frontplate',#213,#211);
#213=PRODUCT_DEFINITION_FORMATION('',$,#218);
#214=PRODUCT_RELATED_PRODUCT_CATEGORY('frontplate','frontplate',(#218));
#215=APPLICATION_PROTOCOL_DEFINITION('international standard',
'automotive_design',2009,#216);
#216=APPLICATION_CONTEXT(
'Core Data for Automotive Mechanical Design Process');
#217=PRODUCT_CONTEXT('part definition',#216,'mechanical');
#218=PRODUCT('2026-09-10-22-39-12-020','frontplate',$,(#217));
#219=PRESENTATION_STYLE_ASSIGNMENT((#220));
#220=SURFACE_STYLE_USAGE(.BOTH.,#221);
#221=SURFACE_SIDE_STYLE('',(#222));
#222=SURFACE_STYLE_FILL_AREA(#223);
#223=FILL_AREA_STYLE('Steel - Satin',(#224));
#224=FILL_AREA_STYLE_COLOUR('Steel - Satin',#225);
#225=COLOUR_RGB('Steel - Satin',0.627450980392157,0.627450980392157,0.627450980392157);
ENDSEC;
END-ISO-10303-21;
