ISO-10303-21;
HEADER;
/* Generated by software containing ST-Developer
 * from STEP Tools, Inc. (www.steptools.com) 
 */

FILE_DESCRIPTION(
/* description */ (''),
/* implementation_level */ '2;1');

FILE_NAME(
/* name */ 'handle.step',
/* time_stamp */ '2026-09-11T00:27:22+05:30',
/* author */ (''),
/* organization */ (''),
/* preprocessor_version */ 'ST-DEVELOPER v20.2',
/* originating_system */ 'Autodesk Translation Framework v15.15.0.0',
/* authorisation */ '');

FILE_SCHEMA (('AUTOMOTIVE_DESIGN { 1 0 10303 214 3 1 1 }'));
ENDSEC;

DATA;
#10=MECHANICAL_DESIGN_GEOMETRIC_PRESENTATION_REPRESENTATION('',(#13),#265);
#11=SHAPE_REPRESENTATION_RELATIONSHIP('SRR','None',#272,#12);
#12=ADVANCED_BREP_SHAPE_REPRESENTATION('',(#14),#264);
#13=STYLED_ITEM('',(#281),#14);
#14=MANIFOLD_SOLID_BREP('Body2',#149);
#15=FACE_BOUND('',#42,.T.);
#16=FACE_BOUND('',#44,.T.);
#17=FACE_BOUND('',#46,.T.);
#18=FACE_BOUND('',#48,.T.);
#19=CYLINDRICAL_SURFACE('',#171,10.);
#20=CYLINDRICAL_SURFACE('',#176,10.5);
#21=CIRCLE('',#165,10.);
#22=CIRCLE('',#166,10.5);
#23=CIRCLE('',#169,10.);
#24=CIRCLE('',#170,10.5);
#25=CIRCLE('',#172,10.);
#26=CIRCLE('',#173,10.);
#27=CIRCLE('',#175,10.5);
#28=CIRCLE('',#177,10.5);
#29=FACE_OUTER_BOUND('',#37,.T.);
#30=FACE_OUTER_BOUND('',#38,.T.);
#31=FACE_OUTER_BOUND('',#39,.T.);
#32=FACE_OUTER_BOUND('',#40,.T.);
#33=FACE_OUTER_BOUND('',#41,.T.);
#34=FACE_OUTER_BOUND('',#43,.T.);
#35=FACE_OUTER_BOUND('',#45,.T.);
#36=FACE_OUTER_BOUND('',#47,.T.);
#37=EDGE_LOOP('',(#99,#100,#101,#102));
#38=EDGE_LOOP('',(#103,#104,#105,#106));
#39=EDGE_LOOP('',(#107,#108,#109,#110));
#40=EDGE_LOOP('',(#111,#112,#113,#114));
#41=EDGE_LOOP('',(#115,#116,#117,#118));
#42=EDGE_LOOP('',(#119,#120,#121,#122));
#43=EDGE_LOOP('',(#123));
#44=EDGE_LOOP('',(#124));
#45=EDGE_LOOP('',(#125,#126,#127,#128));
#46=EDGE_LOOP('',(#129,#130,#131,#132));
#47=EDGE_LOOP('',(#133));
#48=EDGE_LOOP('',(#134));
#49=LINE('',#227,#59);
#50=LINE('',#229,#60);
#51=LINE('',#231,#61);
#52=LINE('',#232,#62);
#53=LINE('',#238,#63);
#54=LINE('',#241,#64);
#55=LINE('',#243,#65);
#56=LINE('',#244,#66);
#57=LINE('',#252,#67);
#58=LINE('',#259,#68);
#59=VECTOR('',#183,10.);
#60=VECTOR('',#184,10.);
#61=VECTOR('',#185,10.);
#62=VECTOR('',#186,10.);
#63=VECTOR('',#193,10.);
#64=VECTOR('',#196,10.);
#65=VECTOR('',#197,10.);
#66=VECTOR('',#198,10.);
#67=VECTOR('',#209,10.5);
#68=VECTOR('',#218,10.5);
#69=VERTEX_POINT('',#225);
#70=VERTEX_POINT('',#226);
#71=VERTEX_POINT('',#228);
#72=VERTEX_POINT('',#230);
#73=VERTEX_POINT('',#234);
#74=VERTEX_POINT('',#236);
#75=VERTEX_POINT('',#240);
#76=VERTEX_POINT('',#242);
#77=VERTEX_POINT('',#249);
#78=VERTEX_POINT('',#251);
#79=VERTEX_POINT('',#255);
#80=VERTEX_POINT('',#258);
#81=EDGE_CURVE('',#69,#70,#49,.T.);
#82=EDGE_CURVE('',#69,#71,#50,.T.);
#83=EDGE_CURVE('',#72,#71,#51,.T.);
#84=EDGE_CURVE('',#70,#72,#52,.T.);
#85=EDGE_CURVE('',#70,#73,#21,.T.);
#86=EDGE_CURVE('',#74,#72,#22,.T.);
#87=EDGE_CURVE('',#73,#74,#53,.T.);
#88=EDGE_CURVE('',#73,#75,#54,.T.);
#89=EDGE_CURVE('',#76,#74,#55,.T.);
#90=EDGE_CURVE('',#75,#76,#56,.T.);
#91=EDGE_CURVE('',#75,#69,#23,.T.);
#92=EDGE_CURVE('',#71,#76,#24,.T.);
#93=EDGE_CURVE('',#77,#77,#25,.T.);
#94=EDGE_CURVE('',#77,#78,#57,.T.);
#95=EDGE_CURVE('',#78,#78,#26,.T.);
#96=EDGE_CURVE('',#79,#79,#27,.T.);
#97=EDGE_CURVE('',#79,#80,#58,.T.);
#98=EDGE_CURVE('',#80,#80,#28,.T.);
#99=ORIENTED_EDGE('',*,*,#81,.F.);
#100=ORIENTED_EDGE('',*,*,#82,.T.);
#101=ORIENTED_EDGE('',*,*,#83,.F.);
#102=ORIENTED_EDGE('',*,*,#84,.F.);
#103=ORIENTED_EDGE('',*,*,#85,.F.);
#104=ORIENTED_EDGE('',*,*,#84,.T.);
#105=ORIENTED_EDGE('',*,*,#86,.F.);
#106=ORIENTED_EDGE('',*,*,#87,.F.);
#107=ORIENTED_EDGE('',*,*,#88,.F.);
#108=ORIENTED_EDGE('',*,*,#87,.T.);
#109=ORIENTED_EDGE('',*,*,#89,.F.);
#110=ORIENTED_EDGE('',*,*,#90,.F.);
#111=ORIENTED_EDGE('',*,*,#91,.F.);
#112=ORIENTED_EDGE('',*,*,#90,.T.);
#113=ORIENTED_EDGE('',*,*,#92,.F.);
#114=ORIENTED_EDGE('',*,*,#82,.F.);
#115=ORIENTED_EDGE('',*,*,#93,.F.);
#116=ORIENTED_EDGE('',*,*,#94,.T.);
#117=ORIENTED_EDGE('',*,*,#95,.F.);
#118=ORIENTED_EDGE('',*,*,#94,.F.);
#119=ORIENTED_EDGE('',*,*,#88,.T.);
#120=ORIENTED_EDGE('',*,*,#91,.T.);
#121=ORIENTED_EDGE('',*,*,#81,.T.);
#122=ORIENTED_EDGE('',*,*,#85,.T.);
#123=ORIENTED_EDGE('',*,*,#96,.T.);
#124=ORIENTED_EDGE('',*,*,#95,.T.);
#125=ORIENTED_EDGE('',*,*,#96,.F.);
#126=ORIENTED_EDGE('',*,*,#97,.T.);
#127=ORIENTED_EDGE('',*,*,#98,.T.);
#128=ORIENTED_EDGE('',*,*,#97,.F.);
#129=ORIENTED_EDGE('',*,*,#89,.T.);
#130=ORIENTED_EDGE('',*,*,#86,.T.);
#131=ORIENTED_EDGE('',*,*,#83,.T.);
#132=ORIENTED_EDGE('',*,*,#92,.T.);
#133=ORIENTED_EDGE('',*,*,#98,.F.);
#134=ORIENTED_EDGE('',*,*,#93,.T.);
#135=PLANE('',#163);
#136=PLANE('',#164);
#137=PLANE('',#167);
#138=PLANE('',#168);
#139=PLANE('',#174);
#140=PLANE('',#178);
#141=ADVANCED_FACE('',(#29),#135,.F.);
#142=ADVANCED_FACE('',(#30),#136,.F.);
#143=ADVANCED_FACE('',(#31),#137,.F.);
#144=ADVANCED_FACE('',(#32),#138,.F.);
#145=ADVANCED_FACE('',(#33,#15),#19,.F.);
#146=ADVANCED_FACE('',(#34,#16),#139,.T.);
#147=ADVANCED_FACE('',(#35,#17),#20,.T.);
#148=ADVANCED_FACE('',(#36,#18),#140,.F.);
#149=CLOSED_SHELL('',(#141,#142,#143,#144,#145,#146,#147,#148));
#150=DERIVED_UNIT_ELEMENT(#152,1.);
#151=DERIVED_UNIT_ELEMENT(#267,-3.);
#152=(
MASS_UNIT()
NAMED_UNIT(*)
SI_UNIT(.KILO.,.GRAM.)
);
#153=DERIVED_UNIT((#150,#151));
#154=MEASURE_REPRESENTATION_ITEM('density measure',
POSITIVE_RATIO_MEASURE(7850.),#153);
#155=PROPERTY_DEFINITION_REPRESENTATION(#160,#157);
#156=PROPERTY_DEFINITION_REPRESENTATION(#161,#158);
#157=REPRESENTATION('material name',(#159),#264);
#158=REPRESENTATION('density',(#154),#264);
#159=DESCRIPTIVE_REPRESENTATION_ITEM('Steel','Steel');
#160=PROPERTY_DEFINITION('material property','material name',#274);
#161=PROPERTY_DEFINITION('material property','density of part',#274);
#162=AXIS2_PLACEMENT_3D('',#223,#179,#180);
#163=AXIS2_PLACEMENT_3D('',#224,#181,#182);
#164=AXIS2_PLACEMENT_3D('',#233,#187,#188);
#165=AXIS2_PLACEMENT_3D('',#235,#189,#190);
#166=AXIS2_PLACEMENT_3D('',#237,#191,#192);
#167=AXIS2_PLACEMENT_3D('',#239,#194,#195);
#168=AXIS2_PLACEMENT_3D('',#245,#199,#200);
#169=AXIS2_PLACEMENT_3D('',#246,#201,#202);
#170=AXIS2_PLACEMENT_3D('',#247,#203,#204);
#171=AXIS2_PLACEMENT_3D('',#248,#205,#206);
#172=AXIS2_PLACEMENT_3D('',#250,#207,#208);
#173=AXIS2_PLACEMENT_3D('',#253,#210,#211);
#174=AXIS2_PLACEMENT_3D('',#254,#212,#213);
#175=AXIS2_PLACEMENT_3D('',#256,#214,#215);
#176=AXIS2_PLACEMENT_3D('',#257,#216,#217);
#177=AXIS2_PLACEMENT_3D('',#260,#219,#220);
#178=AXIS2_PLACEMENT_3D('',#261,#221,#222);
#179=DIRECTION('axis',(0.,0.,1.));
#180=DIRECTION('refdir',(1.,0.,0.));
#181=DIRECTION('center_axis',(2.22044604925031E-16,0.,1.));
#182=DIRECTION('ref_axis',(1.,0.,-2.22044604925031E-16));
#183=DIRECTION('',(1.,0.,-2.22044604925031E-16));
#184=DIRECTION('',(0.,1.,0.));
#185=DIRECTION('',(-1.,0.,2.22044604925031E-16));
#186=DIRECTION('',(0.,1.,0.));
#187=DIRECTION('center_axis',(1.,0.,-2.22044604925031E-16));
#188=DIRECTION('ref_axis',(-2.22044604925031E-16,0.,-1.));
#189=DIRECTION('center_axis',(-1.,0.,2.22044604925031E-16));
#190=DIRECTION('ref_axis',(-2.22044604925031E-16,0.,-1.));
#191=DIRECTION('center_axis',(1.,0.,-2.22044604925031E-16));
#192=DIRECTION('ref_axis',(-2.22044604925031E-16,0.,-1.));
#193=DIRECTION('',(0.,1.,0.));
#194=DIRECTION('center_axis',(-2.22044604925031E-16,0.,-1.));
#195=DIRECTION('ref_axis',(-1.,0.,2.22044604925031E-16));
#196=DIRECTION('',(-1.,0.,2.22044604925031E-16));
#197=DIRECTION('',(1.,0.,-2.22044604925031E-16));
#198=DIRECTION('',(0.,1.,0.));
#199=DIRECTION('center_axis',(-1.,0.,2.22044604925031E-16));
#200=DIRECTION('ref_axis',(2.22044604925031E-16,0.,1.));
#201=DIRECTION('center_axis',(1.,0.,-2.22044604925031E-16));
#202=DIRECTION('ref_axis',(-2.22044604925031E-16,0.,-1.));
#203=DIRECTION('center_axis',(-1.,0.,2.22044604925031E-16));
#204=DIRECTION('ref_axis',(-2.22044604925031E-16,0.,-1.));
#205=DIRECTION('center_axis',(1.,0.,-2.22044604925031E-16));
#206=DIRECTION('ref_axis',(-2.22044604925031E-16,0.,-1.));
#207=DIRECTION('center_axis',(1.,0.,-2.22044604925031E-16));
#208=DIRECTION('ref_axis',(0.,0.,-1.));
#209=DIRECTION('',(1.,0.,-2.22044604925031E-16));
#210=DIRECTION('center_axis',(-1.,0.,2.22044604925031E-16));
#211=DIRECTION('ref_axis',(-2.22044604925031E-16,0.,-1.));
#212=DIRECTION('center_axis',(1.,0.,-2.22044604925031E-16));
#213=DIRECTION('ref_axis',(-2.22044604925031E-16,0.,-1.));
#214=DIRECTION('center_axis',(1.,0.,-2.22044604925031E-16));
#215=DIRECTION('ref_axis',(-2.22044604925031E-16,0.,-1.));
#216=DIRECTION('center_axis',(1.,0.,-2.22044604925031E-16));
#217=DIRECTION('ref_axis',(-2.22044604925031E-16,0.,-1.));
#218=DIRECTION('',(-1.,0.,2.22044604925031E-16));
#219=DIRECTION('center_axis',(1.,0.,-2.22044604925031E-16));
#220=DIRECTION('ref_axis',(-2.22044604925031E-16,0.,-1.));
#221=DIRECTION('center_axis',(1.,0.,-2.22044604925031E-16));
#222=DIRECTION('ref_axis',(-2.22044604925031E-16,0.,-1.));
#223=CARTESIAN_POINT('',(0.,0.,0.));
#224=CARTESIAN_POINT('Origin',(20.0591116535078,0.,81.6449181278003));
#225=CARTESIAN_POINT('',(20.0591116535078,9.10053040837907,81.6449181278003));
#226=CARTESIAN_POINT('',(45.6591116535078,9.10053040837907,81.6449181278003));
#227=CARTESIAN_POINT('',(-77.5,9.10053040837907,81.6449181278004));
#228=CARTESIAN_POINT('',(20.0591116535078,9.64726146187778,81.6449181278003));
#229=CARTESIAN_POINT('',(20.0591116535078,0.,81.6449181278003));
#230=CARTESIAN_POINT('',(45.6591116535078,9.64726146187778,81.6449181278003));
#231=CARTESIAN_POINT('',(-77.5,9.64726146187778,81.6449181278004));
#232=CARTESIAN_POINT('',(45.6591116535078,0.,81.6449181278003));
#233=CARTESIAN_POINT('Origin',(45.6591116535078,0.,81.6449181278003));
#234=CARTESIAN_POINT('',(45.6591116535078,9.82642718628883,75.6449181278003));
#235=CARTESIAN_POINT('Origin',(45.6591116535078,0.,77.5));
#236=CARTESIAN_POINT('',(45.6591116535078,10.334828070531,75.6449181278003));
#237=CARTESIAN_POINT('Origin',(45.6591116535078,0.,77.5));
#238=CARTESIAN_POINT('',(45.6591116535078,0.,75.6449181278003));
#239=CARTESIAN_POINT('Origin',(45.6591116535078,0.,75.6449181278003));
#240=CARTESIAN_POINT('',(20.0591116535078,9.82642718628883,75.6449181278003));
#241=CARTESIAN_POINT('',(-77.5,9.82642718628883,75.6449181278004));
#242=CARTESIAN_POINT('',(20.0591116535078,10.334828070531,75.6449181278003));
#243=CARTESIAN_POINT('',(-77.5,10.334828070531,75.6449181278004));
#244=CARTESIAN_POINT('',(20.0591116535078,0.,75.6449181278003));
#245=CARTESIAN_POINT('Origin',(20.0591116535078,0.,75.6449181278003));
#246=CARTESIAN_POINT('Origin',(20.0591116535078,0.,77.5));
#247=CARTESIAN_POINT('Origin',(20.0591116535078,0.,77.5));
#248=CARTESIAN_POINT('Origin',(-77.5,0.,77.5));
#249=CARTESIAN_POINT('',(-77.5,-1.22464679914735E-15,87.5));
#250=CARTESIAN_POINT('Origin',(-77.5,0.,77.5));
#251=CARTESIAN_POINT('',(77.5,1.22464679914735E-15,87.5));
#252=CARTESIAN_POINT('',(-77.5,-1.22464679914735E-15,87.5));
#253=CARTESIAN_POINT('Origin',(77.5,0.,77.5));
#254=CARTESIAN_POINT('Origin',(77.5,0.,77.5));
#255=CARTESIAN_POINT('',(77.5,-1.28587913910472E-15,88.));
#256=CARTESIAN_POINT('Origin',(77.5,0.,77.5));
#257=CARTESIAN_POINT('Origin',(-77.5,0.,77.5));
#258=CARTESIAN_POINT('',(-77.5,-1.28587913910472E-15,88.));
#259=CARTESIAN_POINT('',(-77.5,-1.28587913910472E-15,88.));
#260=CARTESIAN_POINT('Origin',(-77.5,0.,77.5));
#261=CARTESIAN_POINT('Origin',(-77.5,0.,77.5));
#262=UNCERTAINTY_MEASURE_WITH_UNIT(LENGTH_MEASURE(0.01),#266,
'DISTANCE_ACCURACY_VALUE',
'Maximum model space distance between geometric entities at asserted c
onnectivities');
#263=UNCERTAINTY_MEASURE_WITH_UNIT(LENGTH_MEASURE(0.01),#266,
'DISTANCE_ACCURACY_VALUE',
'Maximum model space distance between geometric entities at asserted c
onnectivities');
#264=(
GEOMETRIC_REPRESENTATION_CONTEXT(3)
GLOBAL_UNCERTAINTY_ASSIGNED_CONTEXT((#262))
GLOBAL_UNIT_ASSIGNED_CONTEXT((#266,#268,#269))
REPRESENTATION_CONTEXT('','3D')
);
#265=(
GEOMETRIC_REPRESENTATION_CONTEXT(3)
GLOBAL_UNCERTAINTY_ASSIGNED_CONTEXT((#263))
GLOBAL_UNIT_ASSIGNED_CONTEXT((#266,#268,#269))
REPRESENTATION_CONTEXT('','3D')
);
#266=(
LENGTH_UNIT()
NAMED_UNIT(*)
SI_UNIT(.MILLI.,.METRE.)
);
#267=(
LENGTH_UNIT()
NAMED_UNIT(*)
SI_UNIT($,.METRE.)
);
#268=(
NAMED_UNIT(*)
PLANE_ANGLE_UNIT()
SI_UNIT($,.RADIAN.)
);
#269=(
NAMED_UNIT(*)
SI_UNIT($,.STERADIAN.)
SOLID_ANGLE_UNIT()
);
#270=SHAPE_DEFINITION_REPRESENTATION(#271,#272);
#271=PRODUCT_DEFINITION_SHAPE('',$,#274);
#272=SHAPE_REPRESENTATION('',(#162),#264);
#273=PRODUCT_DEFINITION_CONTEXT('part definition',#278,'design');
#274=PRODUCT_DEFINITION('2026-09-04-00-00-18-277','handle',#275,#273);
#275=PRODUCT_DEFINITION_FORMATION('',$,#280);
#276=PRODUCT_RELATED_PRODUCT_CATEGORY('handle','handle',(#280));
#277=APPLICATION_PROTOCOL_DEFINITION('international standard',
'automotive_design',2009,#278);
#278=APPLICATION_CONTEXT(
'Core Data for Automotive Mechanical Design Process');
#279=PRODUCT_CONTEXT('part definition',#278,'mechanical');
#280=PRODUCT('2026-09-04-00-00-18-277','handle',$,(#279));
#281=PRESENTATION_STYLE_ASSIGNMENT((#282));
#282=SURFACE_STYLE_USAGE(.BOTH.,#283);
#283=SURFACE_SIDE_STYLE('',(#284));
#284=SURFACE_STYLE_FILL_AREA(#285);
#285=FILL_AREA_STYLE('Steel - Satin',(#286));
#286=FILL_AREA_STYLE_COLOUR('Steel - Satin',#287);
#287=COLOUR_RGB('Steel - Satin',0.627450980392157,0.627450980392157,0.627450980392157);
ENDSEC;
END-ISO-10303-21;
